<svg width="420" height="120" viewBox="0 0 420 120" fill="none" xmlns="http://www.w3.org/2000/svg" role="img" aria-labelledby="title desc">
  <title id="title">Skandioutlet logotyp</title>
  <desc id="desc">Nordisk siluett med svensk flagga och kundvagn samt texten Skandioutlet</desc>

  <defs>
    <linearGradient id="bg" x1="0" y1="0" x2="420" y2="120" gradientUnits="userSpaceOnUse">
      <stop stop-color="#0D2B52" />
      <stop offset="1" stop-color="#123D73" />
    </linearGradient>
    <linearGradient id="ice" x1="0" y1="20" x2="0" y2="78" gradientUnits="userSpaceOnUse">
      <stop stop-color="#EAF4FF" />
      <stop offset="1" stop-color="#CFE4FF" />
    </linearGradient>
  </defs>

  <rect x="2" y="2" width="416" height="116" rx="18" fill="url(#bg)" stroke="#1B4D88" stroke-width="2" />

  <path d="M26 77C40 66 48 58 58 45C63 39 69 34 79 31C91 28 103 31 111 37C118 43 123 44 131 41C139 38 145 35 151 34C160 33 167 37 172 44C177 51 184 56 194 57V77H26Z" fill="url(#ice)" opacity="0.95"/>

  <rect x="59" y="44" width="24" height="16" rx="2" fill="#0F4C92" />
  <rect x="69" y="44" width="4" height="16" fill="#FFD34D" />
  <rect x="59" y="50" width="24" height="4" fill="#FFD34D" />

  <path d="M122 43H174L168 62H128L124 51H116" stroke="#FFFFFF" stroke-width="3.5" stroke-linecap="round" stroke-linejoin="round" />
  <circle cx="133" cy="69" r="4.5" fill="#FFFFFF" />
  <circle cx="163" cy="69" r="4.5" fill="#FFFFFF" />

  <text x="208" y="56" fill="#FFFFFF" font-family="Inter, Arial, Helvetica, sans-serif" font-size="32" font-weight="800" letter-spacing="0.8">SKANDI</text>
  <text x="208" y="88" fill="#FF6B6B" font-family="Inter, Arial, Helvetica, sans-serif" font-size="32" font-weight="800" letter-spacing="0.8">OUTLET</text>
</svg>
